<mxfile host="app.diagrams.net" agent="Mozilla/5.0 (Macintosh; Intel Mac OS X 10_15_7) AppleWebKit/537.36 (KHTML, like Gecko) Chrome/129.0.0.0 Safari/537.36" version="24.7.17">
  <diagram name="Page-1" id="jsvbSfIIRKG5QI_R9pL_">
    <mxGraphModel dx="1113" dy="615" grid="1" gridSize="10" guides="1" tooltips="1" connect="1" arrows="1" fold="1" page="1" pageScale="1" pageWidth="850" pageHeight="1100" math="0" shadow="0">
      <root>
        <mxCell id="0" />
        <mxCell id="1" parent="0" />
        <mxCell id="O7MPDgz5YsvBCz0cdHif-1" value="" style="rounded=0;whiteSpace=wrap;html=1;rotation=90;" vertex="1" parent="1">
          <mxGeometry x="258.63" y="-33.75" width="487" height="636.5" as="geometry" />
        </mxCell>
        <mxCell id="O7MPDgz5YsvBCz0cdHif-23" value="" style="ellipse;whiteSpace=wrap;html=1;" vertex="1" parent="1">
          <mxGeometry x="687.13" y="185" width="120" height="80" as="geometry" />
        </mxCell>
        <mxCell id="O7MPDgz5YsvBCz0cdHif-2" value="Website User" style="shape=umlActor;verticalLabelPosition=bottom;verticalAlign=top;html=1;outlineConnect=0;" vertex="1" parent="1">
          <mxGeometry x="70" y="280" width="50" height="100" as="geometry" />
        </mxCell>
        <mxCell id="O7MPDgz5YsvBCz0cdHif-4" value="" style="ellipse;whiteSpace=wrap;html=1;" vertex="1" parent="1">
          <mxGeometry x="420" y="170" width="120" height="80" as="geometry" />
        </mxCell>
        <mxCell id="O7MPDgz5YsvBCz0cdHif-5" value="" style="ellipse;whiteSpace=wrap;html=1;" vertex="1" parent="1">
          <mxGeometry x="640" y="60" width="120" height="80" as="geometry" />
        </mxCell>
        <mxCell id="O7MPDgz5YsvBCz0cdHif-6" value="" style="ellipse;whiteSpace=wrap;html=1;" vertex="1" parent="1">
          <mxGeometry x="410" y="365" width="120" height="80" as="geometry" />
        </mxCell>
        <mxCell id="O7MPDgz5YsvBCz0cdHif-7" value="" style="endArrow=classic;html=1;rounded=0;exitX=1;exitY=0.3333333333333333;exitDx=0;exitDy=0;exitPerimeter=0;entryX=0;entryY=0.5;entryDx=0;entryDy=0;" edge="1" parent="1" source="O7MPDgz5YsvBCz0cdHif-2" target="O7MPDgz5YsvBCz0cdHif-28">
          <mxGeometry width="50" height="50" relative="1" as="geometry">
            <mxPoint x="243" y="375" as="sourcePoint" />
            <mxPoint x="243" y="145" as="targetPoint" />
          </mxGeometry>
        </mxCell>
        <mxCell id="O7MPDgz5YsvBCz0cdHif-8" value="System" style="text;html=1;align=center;verticalAlign=middle;whiteSpace=wrap;rounded=0;" vertex="1" parent="1">
          <mxGeometry x="456.75" y="40" width="60" height="30" as="geometry" />
        </mxCell>
        <mxCell id="O7MPDgz5YsvBCz0cdHif-9" value="User Story: Search for Restaraunt" style="text;html=1;align=center;verticalAlign=middle;whiteSpace=wrap;rounded=0;" vertex="1" parent="1">
          <mxGeometry x="397.13" width="210" height="30" as="geometry" />
        </mxCell>
        <mxCell id="O7MPDgz5YsvBCz0cdHif-12" value="" style="endArrow=classic;html=1;rounded=0;exitX=1;exitY=0.5;exitDx=0;exitDy=0;entryX=0;entryY=0;entryDx=0;entryDy=0;" edge="1" parent="1" source="O7MPDgz5YsvBCz0cdHif-28" target="O7MPDgz5YsvBCz0cdHif-6">
          <mxGeometry relative="1" as="geometry">
            <mxPoint x="260" y="320" as="sourcePoint" />
            <mxPoint x="420" y="390" as="targetPoint" />
          </mxGeometry>
        </mxCell>
        <mxCell id="O7MPDgz5YsvBCz0cdHif-13" value="Label" style="edgeLabel;resizable=0;html=1;;align=center;verticalAlign=middle;" connectable="0" vertex="1" parent="O7MPDgz5YsvBCz0cdHif-12">
          <mxGeometry relative="1" as="geometry" />
        </mxCell>
        <mxCell id="O7MPDgz5YsvBCz0cdHif-14" value="&amp;lt;&amp;lt;extend&amp;gt;&amp;gt;" style="edgeLabel;html=1;align=center;verticalAlign=middle;resizable=0;points=[];" vertex="1" connectable="0" parent="O7MPDgz5YsvBCz0cdHif-12">
          <mxGeometry x="-0.0285" relative="1" as="geometry">
            <mxPoint as="offset" />
          </mxGeometry>
        </mxCell>
        <mxCell id="O7MPDgz5YsvBCz0cdHif-15" value="" style="endArrow=classic;html=1;rounded=0;exitX=1;exitY=0.5;exitDx=0;exitDy=0;entryX=0;entryY=0.5;entryDx=0;entryDy=0;" edge="1" parent="1" source="O7MPDgz5YsvBCz0cdHif-4" target="O7MPDgz5YsvBCz0cdHif-5">
          <mxGeometry relative="1" as="geometry">
            <mxPoint x="510" y="285" as="sourcePoint" />
            <mxPoint x="610" y="285" as="targetPoint" />
          </mxGeometry>
        </mxCell>
        <mxCell id="O7MPDgz5YsvBCz0cdHif-16" value="&amp;lt;&amp;lt;include&amp;gt;&amp;gt;" style="edgeLabel;resizable=0;html=1;;align=center;verticalAlign=middle;" connectable="0" vertex="1" parent="O7MPDgz5YsvBCz0cdHif-15">
          <mxGeometry relative="1" as="geometry" />
        </mxCell>
        <mxCell id="O7MPDgz5YsvBCz0cdHif-17" value="No Restaurants found" style="text;html=1;align=center;verticalAlign=middle;whiteSpace=wrap;rounded=0;" vertex="1" parent="1">
          <mxGeometry x="440" y="390" width="60" height="30" as="geometry" />
        </mxCell>
        <mxCell id="O7MPDgz5YsvBCz0cdHif-18" value="View Restaurant Ratings&amp;nbsp;" style="text;html=1;align=center;verticalAlign=middle;whiteSpace=wrap;rounded=0;" vertex="1" parent="1">
          <mxGeometry x="650" y="85" width="100" height="30" as="geometry" />
        </mxCell>
        <mxCell id="O7MPDgz5YsvBCz0cdHif-21" value="View Restaurant Details" style="text;html=1;align=center;verticalAlign=middle;whiteSpace=wrap;rounded=0;" vertex="1" parent="1">
          <mxGeometry x="697.13" y="214.5" width="100" height="30" as="geometry" />
        </mxCell>
        <mxCell id="O7MPDgz5YsvBCz0cdHif-25" value="" style="endArrow=classic;html=1;rounded=0;entryX=0;entryY=0.5;entryDx=0;entryDy=0;" edge="1" parent="1" target="O7MPDgz5YsvBCz0cdHif-23">
          <mxGeometry relative="1" as="geometry">
            <mxPoint x="540" y="210" as="sourcePoint" />
            <mxPoint x="670" y="255" as="targetPoint" />
          </mxGeometry>
        </mxCell>
        <mxCell id="O7MPDgz5YsvBCz0cdHif-26" value="Label" style="edgeLabel;resizable=0;html=1;;align=center;verticalAlign=middle;" connectable="0" vertex="1" parent="O7MPDgz5YsvBCz0cdHif-25">
          <mxGeometry relative="1" as="geometry" />
        </mxCell>
        <mxCell id="O7MPDgz5YsvBCz0cdHif-27" value="&amp;lt;&amp;lt;include&amp;gt;&amp;gt;" style="edgeLabel;html=1;align=center;verticalAlign=middle;resizable=0;points=[];" vertex="1" connectable="0" parent="O7MPDgz5YsvBCz0cdHif-25">
          <mxGeometry x="0.0226" y="1" relative="1" as="geometry">
            <mxPoint as="offset" />
          </mxGeometry>
        </mxCell>
        <mxCell id="O7MPDgz5YsvBCz0cdHif-28" value="" style="ellipse;whiteSpace=wrap;html=1;" vertex="1" parent="1">
          <mxGeometry x="220" y="244.5" width="120" height="80" as="geometry" />
        </mxCell>
        <mxCell id="O7MPDgz5YsvBCz0cdHif-11" value="Keyword Entry&amp;nbsp;" style="text;html=1;align=center;verticalAlign=middle;whiteSpace=wrap;rounded=0;" vertex="1" parent="1">
          <mxGeometry x="230" y="269.5" width="100" height="30" as="geometry" />
        </mxCell>
        <mxCell id="O7MPDgz5YsvBCz0cdHif-29" value="" style="endArrow=classic;html=1;rounded=0;exitX=1;exitY=0.5;exitDx=0;exitDy=0;entryX=0;entryY=0.5;entryDx=0;entryDy=0;" edge="1" parent="1" source="O7MPDgz5YsvBCz0cdHif-28" target="O7MPDgz5YsvBCz0cdHif-4">
          <mxGeometry relative="1" as="geometry">
            <mxPoint x="360" y="260" as="sourcePoint" />
            <mxPoint x="460" y="260" as="targetPoint" />
          </mxGeometry>
        </mxCell>
        <mxCell id="O7MPDgz5YsvBCz0cdHif-30" value="&amp;lt;&amp;lt;include&amp;gt;&amp;gt;" style="edgeLabel;resizable=0;html=1;;align=center;verticalAlign=middle;" connectable="0" vertex="1" parent="O7MPDgz5YsvBCz0cdHif-29">
          <mxGeometry relative="1" as="geometry" />
        </mxCell>
        <mxCell id="O7MPDgz5YsvBCz0cdHif-31" value="Select Restaurant from Map" style="text;html=1;align=center;verticalAlign=middle;whiteSpace=wrap;rounded=0;" vertex="1" parent="1">
          <mxGeometry x="450" y="195" width="60" height="30" as="geometry" />
        </mxCell>
        <mxCell id="O7MPDgz5YsvBCz0cdHif-32" value="" style="ellipse;whiteSpace=wrap;html=1;" vertex="1" parent="1">
          <mxGeometry x="607.13" y="310" width="120" height="80" as="geometry" />
        </mxCell>
        <mxCell id="O7MPDgz5YsvBCz0cdHif-33" value="Add to Favorites" style="text;html=1;align=center;verticalAlign=middle;whiteSpace=wrap;rounded=0;" vertex="1" parent="1">
          <mxGeometry x="637.13" y="335" width="60" height="30" as="geometry" />
        </mxCell>
        <mxCell id="O7MPDgz5YsvBCz0cdHif-34" value="" style="endArrow=classic;html=1;rounded=0;entryX=0;entryY=0;entryDx=0;entryDy=0;" edge="1" parent="1" target="O7MPDgz5YsvBCz0cdHif-32">
          <mxGeometry relative="1" as="geometry">
            <mxPoint x="540" y="210" as="sourcePoint" />
            <mxPoint x="697" y="235" as="targetPoint" />
          </mxGeometry>
        </mxCell>
        <mxCell id="O7MPDgz5YsvBCz0cdHif-35" value="Label" style="edgeLabel;resizable=0;html=1;;align=center;verticalAlign=middle;" connectable="0" vertex="1" parent="O7MPDgz5YsvBCz0cdHif-34">
          <mxGeometry relative="1" as="geometry" />
        </mxCell>
        <mxCell id="O7MPDgz5YsvBCz0cdHif-36" value="&amp;lt;&amp;lt;include&amp;gt;&amp;gt;" style="edgeLabel;html=1;align=center;verticalAlign=middle;resizable=0;points=[];" vertex="1" connectable="0" parent="O7MPDgz5YsvBCz0cdHif-34">
          <mxGeometry x="0.0226" y="1" relative="1" as="geometry">
            <mxPoint as="offset" />
          </mxGeometry>
        </mxCell>
      </root>
    </mxGraphModel>
  </diagram>
</mxfile>
